<?xml version="1.0" encoding="UTF-8"?>
<svg width="15px" height="15px" viewBox="0 0 15 15" version="1.1" xmlns="http://www.w3.org/2000/svg" xmlns:xlink="http://www.w3.org/1999/xlink">
    <!-- Generator: Sketch 48.1 (47250) - http://www.bohemiancoding.com/sketch -->
    <title>Group</title>
    <desc>Created with Sketch.</desc>
    <defs></defs>
    <g id="Menu-Tesouro" stroke="none" stroke-width="1" fill="none" fill-rule="evenodd" transform="translate(-21.000000, -81.000000)">
        <g id="Group-4" transform="translate(21.000000, 79.000000)" fill="#FFFFFF" fill-rule="nonzero">
            <g id="Group" transform="translate(0.000000, 2.000000)">
                <path d="M14.8104167,1.29791667 L13.7020833,0.189583333 C13.446875,-0.0619791667 13.0385417,-0.0619791667 12.7869792,0.189583333 L11.6276042,1.34895833 L13.6510417,3.37239583 L14.8104167,2.21666667 C15.0619792,1.9578125 15.0619792,1.54947917 14.8104167,1.29791667 Z" id="Shape"></path>
                <polygon id="Shape" points="10.2848958 2.6953125 4.0140625 9.16666667 3.5 11.5 5.83333333 10.9859375 12.271875 4.67864583"></polygon>
                <path d="M11.6666667,8 L11.6666667,13.46875 C11.6666667,13.6546875 11.5244792,13.8369792 11.33125,13.8369792 C11.1380208,13.8369792 1.52395833,13.8333333 1.52395833,13.8333333 C1.31979167,13.8333333 1.16666667,13.6364583 1.16666667,13.46875 L1.16666667,3.69791667 C1.16666667,3.515625 1.33802083,3.33333333 1.553125,3.33333333 L7,3.33333333 L8.16666667,2.16666667 L0.853125,2.16666667 C0.379166667,2.16666667 0,2.5421875 0,3.01614583 L0,14.146875 C0,14.6171875 0.3828125,15 0.853125,15 L11.9838542,15 C12.4541667,15 12.8333333,14.6171875 12.8333333,14.146875 L12.8333333,6.83333333 L11.6666667,8 Z" id="Shape"></path>
            </g>
        </g>
    </g>
</svg>