<?xml version="1.0" encoding="UTF-8"?>
<svg width="28px" height="25px" viewBox="0 0 28 25" version="1.1" xmlns="http://www.w3.org/2000/svg" xmlns:xlink="http://www.w3.org/1999/xlink">
    <!-- Generator: Sketch 48.1 (47250) - http://www.bohemiancoding.com/sketch -->
    <title>Alert</title>
    <desc>Created with Sketch.</desc>
    <defs></defs>
    <g id="Fundos---Cotizacao---Dia-específico" stroke="none" stroke-width="1" fill="none" fill-rule="evenodd" transform="translate(-274.000000, -181.000000)">
        <g id="Alerta" transform="translate(225.000000, 164.000000)" fill="#333333">
            <g id="Alert" transform="translate(49.000000, 17.000000)">
                <path d="M14,16.9149038 C14.5797931,16.9149038 15.05,16.4466346 15.05,15.8692308 L15.05,6.34230769 C15.05,5.76490385 14.5797931,5.29663462 14,5.29663462 C13.4202069,5.29663462 12.95,5.76490385 12.95,6.34230769 L12.95,15.8692308 C12.95,16.4466346 13.4202069,16.9149038 14,16.9149038 L14,16.9149038 Z" id="Shape"></path>
                <ellipse id="Oval" cx="14" cy="19.8197115" rx="1.08910345" ry="1.08461538"></ellipse>
                <path d="M27.1208966,19.0230769 L17.3344138,2.14230769 C16.6025517,0.874519231 15.2826897,0.219230769 14,0.225480769 C12.7173103,0.219230769 11.3969655,0.875 10.6655862,2.14278846 L0.879103448,19.0225962 C0.525724138,19.6298077 0.358206897,20.2942308 0.359172414,20.9355769 C0.363034483,22.9403846 1.96965517,24.7677885 4.214,24.7745192 L23.786,24.7745192 C26.0298621,24.7677885 27.6364828,22.9403846 27.6403448,20.9355769 C27.6413103,20.2942308 27.4737931,19.6302885 27.1208966,19.0230769 L27.1208966,19.0230769 Z M23.786,22.6831731 L4.214,22.6831731 C3.18862069,22.68125 2.46496552,21.8447115 2.45917241,20.9360577 L2.69765517,20.0692308 L12.4841379,3.18846154 C12.8302759,2.59711538 13.3965517,2.32307692 13.9995172,2.31682692 C14.6024828,2.32307692 15.1687586,2.59663462 15.5153793,3.18846154 L25.3018621,20.06875 L25.5403448,20.9360577 C25.5350345,21.8442308 24.8108966,22.68125 23.786,22.6831731 L23.786,22.6831731 Z" id="Shape"></path>
            </g>
        </g>
    </g>
</svg>