<?xml version="1.0" encoding="UTF-8"?>
<svg width="28px" height="22px" viewBox="0 0 28 22" version="1.1" xmlns="http://www.w3.org/2000/svg" xmlns:xlink="http://www.w3.org/1999/xlink">
    <!-- Generator: Sketch 48.1 (47250) - http://www.bohemiancoding.com/sketch -->
    <title>Logo</title>
    <desc>Created with Sketch.</desc>
    <defs></defs>
    <g id="Menu-Tesouro" stroke="none" stroke-width="1" fill="none" fill-rule="evenodd" transform="translate(-99.000000, -27.000000)">
        <g id="Logo" transform="translate(99.000000, 27.000000)" fill="#FFFFFF">
            <path d="M27.3470533,9.82008403 L10.9162833,0.109974639 C10.832977,0.0608043412 10.7412401,0.0366582129 10.6487887,0.0366582129 C10.5304738,0.0366582129 10.4123018,0.0771944404 10.3152778,0.155486432 C10.1433782,0.295826656 10.071932,0.528800209 10.1353763,0.744505622 L13.3465975,5.85602147 L18.5313058,9.77896244 C18.6964895,9.8771567 18.8249498,10.0938865 18.8258071,10.2891043 C18.82595,10.3215918 18.8198056,10.353933 18.8145186,10.3861278 L18.8125181,10.3861278 C18.7876548,10.5495898 18.7029196,10.7074908 18.5656,10.7898803 L13.3447399,14.7936011 L10.13309,20.0306768 C10.0702173,20.2466749 10.1432354,20.4797948 10.3165639,20.6194033 C10.4131591,20.6962319 10.530188,20.7355974 10.6472169,20.7355974 C10.7408114,20.7355974 10.8345489,20.7107196 10.9184267,20.6600859 L27.3489109,10.7688074 C27.4868021,10.6862715 27.5755383,10.5446142 27.6019734,10.3861278 L27.6036881,10.3861278 C27.6085464,10.3553964 27.6154053,10.325104 27.6154053,10.2934945 C27.6141193,10.0978377 27.5125227,9.91827828 27.3470533,9.82008403" id="Fill-20"></path>
            <path d="M16.9449114,11.1104546 C17.0769815,11.0250094 17.1625596,10.8783587 17.1872456,10.7142857 L17.1888913,10.7142857 C17.1938285,10.682471 17.2,10.6511108 17.2,10.6183871 C17.1993143,10.4158334 17.1016675,10.2299446 16.9431285,10.128289 L12.6758803,7.40828273 L1.17303046,0.0759008108 C1.09334956,0.024997273 1.00461712,0 0.916158983,0 C0.802603415,0 0.689733569,0.0418136203 0.596201085,0.123016883 C0.430942076,0.268304064 0.362507017,0.509338375 0.423536278,0.732798846 L5.91726688,10.2510029 L5.91726688,10.7142857 L5.91548401,10.7142857 L5.91520972,11.0010726 L0.421479112,20.6988026 C0.360998429,20.9224145 0.430942076,21.1636003 0.59729824,21.3082815 C0.690419291,21.3878183 0.802191982,21.4285714 0.914376106,21.4285714 C1.00434284,21.4285714 1.094721,21.4026652 1.17522477,21.3503981 L12.6858919,13.875759 L16.9449114,11.1104546 Z" id="Fill-23"></path>
        </g>
    </g>
</svg>